#!OML:ASF F:\VICON\USERDATA\INSTALL\rory3\rory3.ASF
:FULLY-SPECIFIED
:DEGREES
209
root 1.22022 18.0916 -4.41994 -171.027 -40.0576 178.922
lowerback -7.59663 -0.570909 0.417638
upperback -1.9549 -0.867442 -0.27648
thorax 2.22858 -0.466177 -0.602009
lowerneck -18.3043 -0.843006 0.836405
upperneck 24.3977 -1.7985 -0.559275
head 10.8924 -1.00377 -0.642846
rclavicle 2.08103e-014 4.17448e-015
rhumerus -29.2778 10.9986 -90.8231
rradius 32.8259
rwrist -0.346199
rhand -22.2719 11.1146
rfingers 7.12502
rthumb 4.1462 -18.8247
lclavicle 2.08103e-014 4.17448e-015
lhumerus -40.4338 -12.3351 88.0738
lradius 35.8725
lwrist 11.4477
lhand -12.1892 27.1125
lfingers 7.12502
lthumb 13.8746 56.6296
rfemur -16.8475 -8.17964 23.3377
rtibia 30.3241
rfoot -20.8965 7.64581
rtoes -1.68485
lfemur -36.0842 11.2393 -21.6042
ltibia 56.9764
lfoot -14.3947 -4.84386
ltoes -8.62861
210
root 1.16303 18.1028 -4.50486 -170.881 -39.9219 178.542
lowerback -7.48946 -0.601353 0.0645521
upperback -1.92191 -0.877133 -0.343668
thorax 2.20702 -0.471464 -0.472607
lowerneck -18.3204 -0.783092 0.899627
upperneck 24.4494 -1.71608 -0.635149
head 10.914 -0.970887 -0.669807
rclavicle -9.30017e-015 -3.72721e-015
rhumerus -29.0883 11.3334 -90.9967
rradius 33.2045
rwrist -0.578725
rhand -22.2872 10.9657
rfingers 7.12502
rthumb 4.1314 -18.974
lclavicle -9.30017e-015 -3.72721e-015
lhumerus -40.372 -12.7134 88.3663
lradius 35.9254
lwrist 12.2962
lhand -12.9705 27.1859
lfingers 7.12502
lthumb 13.1216 56.753
rfemur -16.1594 -8.1058 22.9637
rtibia 30.097
rfoot -21.1932 7.68774
rtoes -0.608463
lfemur -36.3373 11.1448 -22.1714
ltibia 55.246
lfoot -14.6835 -4.95514
ltoes -8.30954
211
root 1.10444 18.0787 -4.58588 -171.042 -39.7364 178.447
lowerback -7.29487 -0.594988 -0.0467575
upperback -1.83147 -0.854287 -0.370225
thorax 2.19348 -0.458081 -0.43341
lowerneck -18.3702 -0.72511 1.0457
upperneck 24.5044 -1.64171 -0.781122
head 10.942 -0.942215 -0.73751
rclavicle 1.14829e-014 1.63997e-015
rhumerus -28.8404 11.603 -91.1609
rradius 33.5087
rwrist -0.769816
rhand -22.3052 11.0457
rfingers 7.12502
rthumb 4.11402 -18.8943
lclavicle 1.14829e-014 1.63997e-015
lhumerus -40.276 -12.9309 88.4937
lradius 35.9904
lwrist 12.688
lhand -13.1537 27.3828
lfingers 7.12502
lthumb 12.9451 56.9612
rfemur -15.4379 -8.07408 22.7891
rtibia 29.8209
rfoot -21.2564 8.08245
rtoes 1.64258
lfemur -36.1616 11.6078 -22.8761
ltibia 53.4343
lfoot -15.6348 -3.75727
ltoes -18.276
212
root 1.04847 18.0605 -4.66631 -171.2 -39.6661 178.712
lowerback -7.27819 -0.565615 0.12121
upperback -1.85777 -0.83 -0.303332
thorax 2.15596 -0.44571 -0.456217
lowerneck -18.2534 -0.732447 1.02753
upperneck 24.4768 -1.64497 -0.793798
head 10.9091 -0.948682 -0.738356
rclavicle 5.35717e-014 4.91992e-015
rhumerus -28.7141 11.8177 -91.2694
rradius 33.8177
rwrist -0.833043
rhand -22.2744 11.0809
rfingers 7.12502
rthumb 4.14377 -18.8585
lclavicle 5.35717e-014 4.91992e-015
lhumerus -40.2164 -12.8639 88.4456
lradius 36.0211
lwrist 11.9451
lhand -12.1196 27.4154
lfingers 7.12502
lthumb 13.9417 56.928
rfemur -15.0391 -7.86503 22.9836
rtibia 29.5216
rfoot -21.1339 8.1348
rtoes 2.37638
lfemur -36.3119 11.6508 -23.0746
ltibia 51.485
lfoot -15.9942 -3.17796
ltoes -22.7059
213
root 0.990968 18.0638 -4.75097 -171.099 -39.633 178.903
lowerback -7.5407 -0.565671 0.260828
upperback -1.9033 -0.845957 -0.271122
thorax 2.25329 -0.454829 -0.50608
lowerneck -18.2356 -0.728302 0.997335
upperneck 24.498 -1.64319 -0.75604
head 10.9142 -0.946978 -0.719645
rclavicle -4.27076e-017 -1.3418e-014
rhumerus -28.6163 12.1164 -91.4646
rradius 34.1393
rwrist -0.945691
rhand -22.5324 11.4662
rfingers 7.12502
rthumb 3.8947 -18.4779
lclavicle -4.27076e-017 -1.3418e-014
lhumerus -40.1114 -12.8781 88.3894
lradius 36.0341
lwrist 11.4653
lhand -11.7554 27.4704
lfingers 7.12502
lthumb 14.2927 56.9585
rfemur -14.8344 -7.68914 23.1926
rtibia 29.1069
rfoot -20.8982 7.90433
rtoes 2.75214
lfemur -36.8241 11.4043 -23.1247
ltibia 49.3904
lfoot -15.787 -3.62475
ltoes -20.7907
214
root 0.927272 18.0727 -4.83502 -171.091 -39.4866 178.997
lowerback -7.68141 -0.532139 0.387367
upperback -1.88481 -0.811425 -0.295649
thorax 2.34881 -0.437005 -0.601207
lowerneck -18.3127 -0.702343 1.03017
upperneck 24.5734 -1.62249 -0.749346
head 10.9573 -0.934088 -0.721458
rclavicle 4.45763e-014 -7.20594e-016
rhumerus -28.537 12.5939 -91.7583
rradius 34.5826
rwrist -1.44745
rhand -22.9832 11.4635
rfingers 7.12502
rthumb 3.4593 -18.4882
lclavicle 4.45763e-014 -7.20594e-016
lhumerus -39.9744 -13.1486 88.4111
lradius 36.0234
lwrist 11.4177
lhand -12.008 27.4451
lfingers 7.12502
lthumb 14.0493 56.9502
rfemur -14.2733 -7.67735 23.2463
rtibia 28.5153
rfoot -20.774 7.93597
rtoes 3.4408
lfemur -37.1263 11.3057 -23.2699
ltibia 47.1756
lfoot -15.5911 -4.02191
ltoes -19.4676
215
root 0.862798 18.0838 -4.91755 -171.225 -39.1558 179.039
lowerback -7.58239 -0.450158 0.414939
upperback -1.86585 -0.702307 -0.307214
thorax 2.31428 -0.381916 -0.617197
lowerneck -18.263 -0.684844 1.02257
upperneck 24.5718 -1.60663 -0.716059
head 10.9477 -0.924497 -0.705535
rclavicle 1.20206e-013 2.05245e-014
rhumerus -28.4396 12.9205 -91.9958
rradius 34.999
rwrist -1.76107
rhand -23.0358 10.6134
rfingers 7.12502
rthumb 3.40853 -19.3391
lclavicle 1.20206e-013 2.05245e-014
lhumerus -39.9795 -13.3053 88.4704
lradius 36.111
lwrist 11.2964
lhand -12.1202 27.3845
lfingers 7.12502
lthumb 13.9412 56.8971
rfemur -13.4671 -7.50171 23.1722
rtibia 27.9018
rfoot -20.7711 8.0684
rtoes 3.17833
lfemur -37.035 11.4184 -23.4954
ltibia 44.9026
lfoot -15.474 -4.07795
ltoes -18.9729
